<svg version="1" xmlns="http://www.w3.org/2000/svg" width="1365.333" height="1365.333" viewBox="0 0 1024.000000 1024.000000"><path d="M410 621.5V1024h104V780.2l57.8-.5c67.1-.6 79.8-1.6 108.3-8.8 35.5-8.8 60.8-22.7 83.9-45.8 30.3-30.3 46.4-68 53.6-125.1 1.4-11.3 1.8-25.5 2.1-87.5.3-48.2.1-80.3-.6-92-4.2-67.1-22.3-114.9-56.5-149.1-29.4-29.3-66.8-45.6-117.4-50.9-11.1-1.2-34.6-1.5-124.4-1.5H410v402.5zm227.9-306c30.9 5 52.5 20.3 65 46 5.2 10.6 8.4 21.2 11.3 37 2.3 13 2.3 13 2.3 101 0 67.5-.3 90-1.3 96.5-8 51.8-31.6 78.3-78.3 87.6-7.1 1.4-17.2 1.8-65.6 2.1l-57.3.4V314h57.3c46.5 0 59 .3 66.6 1.5z"/></svg>