<svg version="1.1" viewBox="0.0 0.0 612.0 336.0" fill="none" stroke="none" stroke-linecap="square" stroke-miterlimit="10" xmlns:xlink="http://www.w3.org/1999/xlink" xmlns="http://www.w3.org/2000/svg"><clipPath id="p.0"><path d="m0 0l612.0 0l0 336.0l-612.0 0l0 -336.0z" clip-rule="nonzero"/></clipPath><g clip-path="url(#p.0)"><path fill="#000000" fill-opacity="0.0" d="m0 0l612.0 0l0 336.0l-612.0 0z" fill-rule="evenodd"/><path fill="#b6d7a8" d="m224.14108 20.338583l163.71652 0l0 50.015747l-163.71652 0z" fill-rule="evenodd"/><path stroke="#000000" stroke-width="1.0" stroke-linejoin="round" stroke-linecap="butt" d="m224.14108 20.338583l163.71652 0l0 50.015747l-163.71652 0z" fill-rule="evenodd"/><path fill="#000000" d="m255.50716 51.206455l0 -5.40625q0 -0.296875 -0.015625 -0.515625q-0.015625 -0.234375 -0.0625 -0.375q-0.046875 -0.15625 -0.140625 -0.21875q-0.078125 -0.078125 -0.234375 -0.078125q-0.25 0 -0.484375 0.328125q-0.234375 0.328125 -0.53125 1.109375l0 5.15625l-1.625 0l0 -5.40625q0 -0.296875 -0.015625 -0.515625q-0.015625 -0.234375 -0.0625 -0.375q-0.046875 -0.15625 -0.140625 -0.21875q-0.09375 -0.078125 -0.25 -0.078125q-0.203125 0 -0.453125 0.328125q-0.25 0.328125 -0.5625 1.109375l0 5.15625l-1.640625 0l0 -7.9375l1.40625 0l0.03125 1.15625q0.171875 -0.359375 0.34375 -0.609375q0.171875 -0.25 0.359375 -0.40625q0.203125 -0.15625 0.421875 -0.21875q0.234375 -0.078125 0.515625 -0.078125q0.65625 0 1.0 0.34375q0.359375 0.34375 0.40625 0.96875q0.1875 -0.359375 0.359375 -0.609375q0.1875 -0.25 0.390625 -0.40625q0.203125 -0.15625 0.421875 -0.21875q0.234375 -0.078125 0.515625 -0.078125q0.87501526 0 1.2812653 0.609375q0.421875 0.59375 0.421875 1.78125l0 5.703125l-1.6562653 0zm8.17189 0l-0.046875 -1.046875q-0.25 0.265625 -0.53125 0.5q-0.265625 0.21875 -0.59375 0.390625q-0.328125 0.15625 -0.71875 0.25q-0.375 0.09375 -0.84375 0.09375q-0.609375 0 -1.078125 -0.1875q-0.453125 -0.1875 -0.765625 -0.5q-0.3125 -0.328125 -0.46875 -0.78125q-0.15625 -0.453125 -0.15625 -1.0q0 -0.5625 0.234375 -1.03125q0.234375 -0.484375 0.71875 -0.828125q0.5 -0.34375 1.21875 -0.53125q0.734375 -0.203125 1.71875 -0.203125l1.046875 0l0 -0.46875q0 -0.3125 -0.09375 -0.546875q-0.078125 -0.25 -0.28125 -0.421875q-0.1875 -0.171875 -0.5 -0.265625q-0.296875 -0.09375 -0.734375 -0.09375q-0.703125 0 -1.390625 0.15625q-0.6875 0.15625 -1.328125 0.453125l0 -1.53125q0.578125 -0.21875 1.3125 -0.359375q0.75 -0.15625 1.5625 -0.15625q0.875 0 1.5 0.171875q0.640625 0.15625 1.046875 0.5q0.421875 0.328125 0.609375 0.84375q0.203125 0.5 0.203125 1.171875l0 5.421875l-1.640625 0zm-0.265625 -3.515625l-1.171875 0q-0.484375 0 -0.828125 0.09375q-0.328125 0.09375 -0.546875 0.265625q-0.203125 0.15625 -0.296875 0.375q-0.09375 0.21875 -0.09375 0.453125q0 0.484375 0.3125 0.75q0.3125 0.25 0.84375 0.25q0.40625 0 0.828125 -0.28125q0.4375 -0.296875 0.953125 -0.84375l0 -1.0625zm8.765625 -6.59375q0 0.25 -0.09375 0.484375q-0.09375 0.21875 -0.265625 0.390625q-0.171875 0.171875 -0.40625 0.265625q-0.21875 0.09375 -0.484375 0.09375q-0.265625 0 -0.5 -0.09375q-0.21875 -0.09375 -0.390625 -0.265625q-0.171875 -0.171875 -0.265625 -0.390625q-0.09375 -0.234375 -0.09375 -0.484375q0 -0.265625 0.09375 -0.484375q0.09375 -0.234375 0.265625 -0.40625q0.171875 -0.171875 0.390625 -0.265625q0.234375 -0.09375 0.5 -0.09375q0.265625 0 0.484375 0.09375q0.234375 0.09375 0.40625 0.265625q0.171875 0.171875 0.265625 0.40625q0.09375 0.21875 0.09375 0.484375zm-2.109375 3.65625l-2.25 0l0 -1.484375l4.203125 0l0 6.453125l2.28125 0l0 1.484375l-6.75 0l0 -1.484375l2.515625 0l0 -4.96875zm10.96875 6.453125l0 -5.171875q0 -1.3125 -0.96875 -1.3125q-0.484375 0 -0.9375 0.390625q-0.4375 0.390625 -0.921875 1.0625l0 5.03125l-1.90625 0l0 -7.9375l1.640625 0l0.046875 1.171875q0.25 -0.3125 0.5 -0.5625q0.265625 -0.25 0.5625 -0.421875q0.3125 -0.171875 0.65625 -0.265625q0.359375 -0.09375 0.796875 -0.09375q0.609375 0 1.0625 0.203125q0.453125 0.1875 0.75 0.5625q0.3125 0.359375 0.46875 0.875q0.15625 0.5 0.15625 1.140625l0 5.328125l-1.90625 0zm4.9375 -3.40625l0 -1.703125l4.859375 0l0 1.703125l-4.859375 0zm15.046875 -6.015625q-0.34375 -0.109375 -0.828125 -0.1875q-0.46875 -0.078125 -0.953125 -0.078125q-0.34375 0 -0.640625 0.09375q-0.28125 0.09375 -0.5 0.296875q-0.203125 0.1875 -0.328125 0.484375q-0.109375 0.296875 -0.109375 0.734375l0 1.28125l3.109375 0l0 1.484375l-3.109375 0l0 5.3125l-1.921875 0l0 -5.3125l-2.3125 0l0 -1.484375l2.3125 0l0 -1.203125q0 -0.84375 0.234375 -1.453125q0.25 -0.609375 0.703125 -0.984375q0.453125 -0.390625 1.078125 -0.5625q0.640625 -0.1875 1.421875 -0.1875q0.515625 0 0.96875 0.0625q0.46875 0.0625 0.875 0.15625l0 1.546875zm-8.21875 1.484375l0 0zm17.0 4.703125q0 0.765625 -0.28125 1.40625q-0.28125 0.625 -0.78125 1.078125q-0.5 0.4375 -1.1875 0.6875q-0.6875 0.25 -1.5 0.25q-1.796875 0 -2.75 -1.125q-0.9375 -1.140625 -0.9375 -3.453125q0 -0.84375 0.09375 -1.59375q0.109375 -0.765625 0.34375 -1.40625q0.25 -0.65625 0.640625 -1.171875q0.40625 -0.53125 1.0 -0.890625q0.609375 -0.359375 1.421875 -0.5625q0.828125 -0.203125 1.921875 -0.203125l1.15625 0l0 1.625l-1.359375 0q-0.84375 0 -1.421875 0.171875q-0.5625 0.171875 -0.921875 0.5q-0.359375 0.3125 -0.546875 0.78125q-0.171875 0.453125 -0.21875 1.03125l-0.015625 0.1875q0.40625 -0.203125 0.921875 -0.328125q0.515625 -0.125 1.09375 -0.125q0.828125 0 1.453125 0.21875q0.625 0.21875 1.03125 0.625q0.421875 0.40625 0.625 0.984375q0.21875 0.578125 0.21875 1.3125zm-1.984375 0.078125q0 -0.359375 -0.09375 -0.65625q-0.09375 -0.296875 -0.296875 -0.515625q-0.203125 -0.21875 -0.515625 -0.328125q-0.296875 -0.125 -0.734375 -0.125q-0.25 0 -0.5 0.046875q-0.234375 0.03125 -0.46875 0.109375q-0.234375 0.0625 -0.4375 0.15625q-0.203125 0.078125 -0.375 0.171875q0 0.796875 0.109375 1.34375q0.109375 0.53125 0.328125 0.875q0.234375 0.34375 0.5625 0.5q0.328125 0.15625 0.765625 0.15625q0.375 0 0.671875 -0.125q0.3125 -0.125 0.53125 -0.359375q0.21875 -0.234375 0.328125 -0.546875q0.125 -0.3125 0.125 -0.703125zm10.09375 2.84375q-0.5625 0.234375 -1.171875 0.34375q-0.59375 0.109375 -1.25 0.109375q-0.953125 0 -1.703125 -0.25q-0.75 -0.265625 -1.28125 -0.765625q-0.515625 -0.515625 -0.796875 -1.265625q-0.265625 -0.75 -0.265625 -1.734375q0 -0.953125 0.296875 -1.71875q0.296875 -0.78125 0.84375 -1.328125q0.546875 -0.546875 1.3125 -0.84375q0.78125 -0.296875 1.71875 -0.296875q0.78125 0 1.296875 0.078125q0.53125 0.078125 0.953125 0.203125l0 1.859375q-0.484375 -0.25 -1.046875 -0.375q-0.5625 -0.140625 -1.078125 -0.140625q-0.53125 0 -0.953125 0.1875q-0.421875 0.171875 -0.71875 0.5q-0.28125 0.3125 -0.4375 0.78125q-0.140625 0.453125 -0.140625 1.0q0 0.5625 0.15625 1.015625q0.171875 0.453125 0.46875 0.78125q0.296875 0.3125 0.71875 0.484375q0.421875 0.15625 0.9375 0.15625q0.25 0 0.53125 -0.03125q0.28125 -0.03125 0.546875 -0.09375q0.28125 -0.078125 0.546875 -0.15625q0.28125 -0.09375 0.515625 -0.1875l0 1.6875zm9.25 -2.8125q0 0.765625 -0.28125 1.375q-0.28125 0.59375 -0.859375 1.03125q-0.578125 0.421875 -1.46875 0.65625q-0.875 0.21875 -2.078125 0.21875q-0.265625 0 -0.5625 -0.015625q-0.28125 0 -0.578125 -0.03125q-0.28125 -0.015625 -0.5625 -0.046875q-0.265625 -0.015625 -0.484375 -0.0625l0 -1.65625q0.484375 0.09375 1.09375 0.15625q0.625 0.046875 1.28125 0.046875q0.65625 0 1.125 -0.109375q0.46875 -0.109375 0.765625 -0.3125q0.3125 -0.203125 0.453125 -0.5q0.140625 -0.3125 0.140625 -0.703125q0 -0.328125 -0.15625 -0.59375q-0.140625 -0.28125 -0.453125 -0.46875q-0.296875 -0.203125 -0.765625 -0.296875q-0.46875 -0.109375 -1.125 -0.109375l-1.125 0l0 -1.453125l1.03125 0q0.609375 0 1.015625 -0.125q0.40625 -0.125 0.640625 -0.328125q0.234375 -0.203125 0.328125 -0.46875q0.109375 -0.28125 0.109375 -0.59375q0 -0.625 -0.40625 -0.9375q-0.40625 -0.328125 -1.25 -0.328125q-0.609375 0 -1.203125 0.125q-0.59375 0.109375 -1.234375 0.296875l0 -1.59375q0.359375 -0.125 0.671875 -0.203125q0.328125 -0.078125 0.640625 -0.125q0.328125 -0.0625 0.65625 -0.078125q0.328125 -0.03125 0.671875 -0.03125q0.84375 0 1.484375 0.1875q0.640625 0.171875 1.0625 0.515625q0.4375 0.328125 0.65625 0.8125q0.21875 0.46875 0.21875 1.046875q0 0.9375 -0.421875 1.515625q-0.421875 0.5625 -1.1875 0.875q0.484375 0.078125 0.875 0.265625q0.40625 0.1875 0.6875 0.5q0.296875 0.296875 0.4375 0.6875q0.15625 0.390625 0.15625 0.859375zm5.1875 0.234375q0.328125 0 0.609375 0.125q0.28125 0.125 0.484375 0.328125q0.203125 0.203125 0.3125 0.484375q0.125 0.28125 0.125 0.609375q0 0.3125 -0.125 0.59375q-0.109375 0.265625 -0.3125 0.484375q-0.203125 0.203125 -0.484375 0.328125q-0.28125 0.125 -0.609375 0.125q-0.3125 0 -0.59375 -0.125q-0.265625 -0.125 -0.46875 -0.328125q-0.203125 -0.21875 -0.328125 -0.484375q-0.109375 -0.28125 -0.109375 -0.59375q0 -0.328125 0.109375 -0.609375q0.125 -0.28125 0.328125 -0.484375q0.203125 -0.203125 0.46875 -0.328125q0.28125 -0.125 0.59375 -0.125zm11.125 2.890625l0 -5.40625q0 -0.296875 -0.015625 -0.515625q-0.015625 -0.234375 -0.0625 -0.375q-0.046875 -0.15625 -0.140625 -0.21875q-0.078125 -0.078125 -0.234375 -0.078125q-0.25 0 -0.484375 0.328125q-0.234375 0.328125 -0.53125 1.109375l0 5.15625l-1.625 0l0 -5.40625q0 -0.296875 -0.015625 -0.515625q-0.015625 -0.234375 -0.0625 -0.375q-0.046875 -0.15625 -0.140625 -0.21875q-0.09375 -0.078125 -0.25 -0.078125q-0.203125 0 -0.453125 0.328125q-0.25 0.328125 -0.5625 1.109375l0 5.15625l-1.640625 0l0 -7.9375l1.40625 0l0.03125 1.15625q0.171875 -0.359375 0.34375 -0.609375q0.171875 -0.25 0.359375 -0.40625q0.203125 -0.15625 0.421875 -0.21875q0.234375 -0.078125 0.515625 -0.078125q0.65625 0 1.0 0.34375q0.359375 0.34375 0.40625 0.96875q0.1875 -0.359375 0.359375 -0.609375q0.1875 -0.25 0.390625 -0.40625q0.203125 -0.15625 0.421875 -0.21875q0.234375 -0.078125 0.515625 -0.078125q0.875 0 1.28125 0.609375q0.421875 0.59375 0.421875 1.78125l0 5.703125l-1.65625 0zm9.015625 -0.234375q0 0.90625 -0.265625 1.5625q-0.265625 0.65625 -0.75 1.09375q-0.484375 0.4375 -1.171875 0.640625q-0.6875 0.21875 -1.53125 0.21875q-0.6875 0 -1.28125 -0.125q-0.59375 -0.109375 -0.96875 -0.265625l0 -1.75q0.21875 0.109375 0.484375 0.21875q0.28125 0.125 0.578125 0.203125q0.3125 0.09375 0.625 0.140625q0.3125 0.0625 0.609375 0.0625q0.875 0 1.296875 -0.5q0.4375 -0.5 0.4375 -1.484375l0 -6.234375l-3.78125 0l0 -1.484375l5.71875 0l0 7.703125zm0.15625 -9.875q0 0.25 -0.09375 0.484375q-0.09375 0.21875 -0.265625 0.390625q-0.171875 0.171875 -0.40625 0.265625q-0.21875 0.09375 -0.484375 0.09375q-0.265625 0 -0.5 -0.09375q-0.21875 -0.09375 -0.390625 -0.265625q-0.171875 -0.171875 -0.265625 -0.390625q-0.09375 -0.234375 -0.09375 -0.484375q0 -0.265625 0.09375 -0.484375q0.09375 -0.234375 0.265625 -0.40625q0.171875 -0.171875 0.390625 -0.265625q0.234375 -0.09375 0.5 -0.09375q0.265625 0 0.484375 0.09375q0.234375 0.09375 0.40625 0.265625q0.171875 0.171875 0.265625 0.40625q0.09375 0.21875 0.09375 0.484375zm9.375 7.765625q0 0.6875 -0.3125 1.171875q-0.296875 0.46875 -0.796875 0.78125q-0.484375 0.296875 -1.125 0.4375q-0.625 0.140625 -1.28125 0.140625q-0.875 0 -1.578125 -0.09375q-0.703125 -0.078125 -1.328125 -0.234375l0 -1.71875q0.734375 0.296875 1.46875 0.4375q0.734375 0.140625 1.375 0.140625q0.75 0 1.125 -0.234375q0.375 -0.25 0.375 -0.625q0 -0.1875 -0.078125 -0.328125q-0.078125 -0.15625 -0.296875 -0.28125q-0.21875 -0.140625 -0.609375 -0.28125q-0.390625 -0.15625 -1.015625 -0.328125q-0.59375 -0.171875 -1.03125 -0.375q-0.4375 -0.203125 -0.734375 -0.484375q-0.28125 -0.28125 -0.4375 -0.65625q-0.140625 -0.375 -0.140625 -0.875q0 -0.484375 0.21875 -0.90625q0.21875 -0.4375 0.65625 -0.75q0.4375 -0.328125 1.078125 -0.515625q0.65625 -0.1875 1.515625 -0.1875q0.75 0 1.328125 0.078125q0.578125 0.078125 1.03125 0.171875l0 1.546875q-0.6875 -0.21875 -1.28125 -0.296875q-0.59375 -0.09375 -1.1875 -0.09375q-0.578125 0 -0.9375 0.21875q-0.359375 0.203125 -0.359375 0.578125q0 0.171875 0.0625 0.3125q0.078125 0.140625 0.28125 0.28125q0.21875 0.125 0.578125 0.28125q0.375 0.140625 0.984375 0.3125q0.6875 0.1875 1.15625 0.421875q0.46875 0.21875 0.75 0.5q0.296875 0.28125 0.421875 0.640625q0.125 0.359375 0.125 0.8125z" fill-rule="nonzero"/><path fill="#b6d7a8" d="m225.30249 142.99213l163.71655 0l0 50.015747l-163.71655 0z" fill-rule="evenodd"/><path stroke="#000000" stroke-width="1.0" stroke-linejoin="round" stroke-linecap="butt" d="m225.30249 142.99213l163.71655 0l0 50.015747l-163.71655 0z" fill-rule="evenodd"/><path fill="#000000" d="m256.0592 173.86l-0.046875 -1.171875q-0.25 0.296875 -0.515625 0.546875q-0.265625 0.25 -0.578125 0.4375q-0.296875 0.171875 -0.640625 0.265625q-0.34375 0.109375 -0.765625 0.109375q-0.703125 0 -1.25 -0.28125q-0.546875 -0.296875 -0.921875 -0.8125q-0.375 -0.515625 -0.578125 -1.25q-0.1875 -0.75 -0.1875 -1.671875q0 -1.09375 0.3125 -1.890625q0.3125 -0.796875 0.859375 -1.328125q0.546875 -0.53125 1.296875 -0.78125q0.75 -0.25 1.625 -0.25q0.296875 0 0.59375 0.046875q0.3125 0.03125 0.546875 0.09375l0 -3.109375l1.90625 0l0 11.046875l-1.65625 0zm-3.484375 -3.90625q0 0.65625 0.09375 1.125q0.09375 0.453125 0.265625 0.75q0.171875 0.296875 0.421875 0.4375q0.265625 0.140625 0.59375 0.140625q0.484375 0 0.921875 -0.390625q0.4375 -0.390625 0.9375 -1.078125l0 -3.46875q-0.234375 -0.078125 -0.5625 -0.125q-0.328125 -0.0625 -0.671875 -0.0625q-0.453125 0 -0.828125 0.1875q-0.359375 0.1875 -0.625 0.53125q-0.265625 0.34375 -0.40625 0.84375q-0.140625 0.484375 -0.140625 1.109375zm14.203125 -0.671875q0 0.1875 -0.015625 0.5q0 0.3125 -0.03125 0.59375l-5.21875 0q0 0.515625 0.15625 0.921875q0.171875 0.390625 0.453125 0.671875q0.296875 0.265625 0.703125 0.40625q0.421875 0.140625 0.921875 0.140625q0.578125 0 1.234375 -0.09375q0.65625 -0.09375 1.375 -0.296875l0 1.515625q-0.3125 0.09375 -0.671875 0.171875q-0.359375 0.0625 -0.734375 0.109375q-0.375 0.0625 -0.765625 0.09375q-0.375 0.03125 -0.734375 0.03125q-0.90625 0 -1.625 -0.265625q-0.71875 -0.265625 -1.21875 -0.765625q-0.5 -0.5 -0.765625 -1.234375q-0.265625 -0.75 -0.265625 -1.734375q0 -0.96875 0.265625 -1.75q0.265625 -0.796875 0.75 -1.359375q0.484375 -0.578125 1.171875 -0.875q0.703125 -0.3125 1.546875 -0.3125q0.84375 0 1.484375 0.265625q0.65625 0.25 1.09375 0.71875q0.4375 0.46875 0.65625 1.125q0.234375 0.640625 0.234375 1.421875zm-1.9375 -0.28125q0.015625 -0.46875 -0.109375 -0.8125q-0.125 -0.34375 -0.34375 -0.5625q-0.21875 -0.234375 -0.5 -0.34375q-0.28125 -0.109375 -0.609375 -0.109375q-0.71875 0 -1.1875 0.484375q-0.453125 0.46875 -0.546875 1.34375l3.296875 0zm10.96875 0.75q0 1.09375 -0.3125 1.890625q-0.3125 0.796875 -0.859375 1.328125q-0.546875 0.515625 -1.296875 0.78125q-0.75 0.25 -1.640625 0.25q-0.296875 0 -0.59375 -0.046875q-0.296875 -0.03125 -0.53125 -0.09375l0 3.109375l-1.90625 0l0 -11.046875l1.640625 0l0.046875 1.171875q0.25 -0.3125 0.5 -0.5625q0.265625 -0.25 0.5625 -0.421875q0.3125 -0.171875 0.65625 -0.265625q0.359375 -0.09375 0.796875 -0.09375q0.703125 0 1.25 0.28125q0.546875 0.28125 0.921875 0.796875q0.375 0.515625 0.5625 1.265625q0.203125 0.734375 0.203125 1.65625zm-2.0 0.078125q0 -0.65625 -0.09375 -1.109375q-0.09375 -0.46875 -0.28125 -0.765625q-0.171875 -0.296875 -0.421875 -0.4375q-0.25 -0.140625 -0.578125 -0.140625q-0.484375 0 -0.9375 0.390625q-0.4375 0.390625 -0.921875 1.0625l0 3.46875q0.21875 0.09375 0.546875 0.15625q0.34375 0.046875 0.6875 0.046875q0.453125 0 0.8125 -0.1875q0.375 -0.1875 0.640625 -0.53125q0.265625 -0.34375 0.40625 -0.84375q0.140625 -0.5 0.140625 -1.109375zm3.578125 4.03125l0 -1.40625l2.40625 -2.421875q0.6875 -0.671875 1.09375 -1.15625q0.40625 -0.5 0.625 -0.890625q0.234375 -0.390625 0.296875 -0.71875q0.078125 -0.328125 0.078125 -0.671875q0 -0.296875 -0.09375 -0.546875q-0.09375 -0.265625 -0.28125 -0.453125q-0.171875 -0.203125 -0.453125 -0.3125q-0.265625 -0.109375 -0.625 -0.109375q-0.59375 0 -1.109375 0.265625q-0.515625 0.25 -0.984375 0.6875l-1.0 -1.296875q0.65625 -0.609375 1.484375 -0.984375q0.84375 -0.375 1.8125 -0.375q0.75 0 1.359375 0.203125q0.609375 0.1875 1.03125 0.5625q0.4375 0.375 0.671875 0.9375q0.25 0.5625 0.25 1.296875q0 0.609375 -0.171875 1.140625q-0.15625 0.515625 -0.46875 1.015625q-0.3125 0.5 -0.78125 1.0q-0.453125 0.5 -1.03125 1.0625l-1.484375 1.40625l4.296875 0l0 1.765625l-6.921875 0zm9.75 -3.40625l0 -1.703125l4.859375 0l0 1.703125l-4.859375 0zm7.84375 3.40625l0 -1.40625l2.40625 -2.421875q0.6875 -0.671875 1.09375 -1.15625q0.40625 -0.5 0.625 -0.890625q0.234375 -0.390625 0.296875 -0.71875q0.078125 -0.328125 0.078125 -0.671875q0 -0.296875 -0.09375 -0.546875q-0.09375 -0.265625 -0.28125 -0.453125q-0.171875 -0.203125 -0.453125 -0.3125q-0.265625 -0.109375 -0.625 -0.109375q-0.59375 0 -1.109375 0.265625q-0.515625 0.25 -0.984375 0.6875l-1.0 -1.296875q0.65625 -0.609375 1.484375 -0.984375q0.84375 -0.375 1.8125 -0.375q0.75 0 1.359375 0.203125q0.609375 0.1875 1.03125 0.5625q0.4375 0.375 0.671875 0.9375q0.25 0.5625 0.25 1.296875q0 0.609375 -0.171875 1.140625q-0.15625 0.515625 -0.46875 1.015625q-0.3125 0.5 -0.78125 1.0q-0.453125 0.5 -1.03125 1.0625l-1.484375 1.40625l4.296875 0l0 1.765625l-6.921875 0zm16.015625 -4.109375q0 1.09375 -0.3125 1.890625q-0.3125 0.796875 -0.859375 1.328125q-0.546875 0.515625 -1.296875 0.78125q-0.75 0.25 -1.640625 0.25q-0.859375 0 -1.609375 -0.140625q-0.75 -0.125 -1.421875 -0.34375l0 -10.703125l1.90625 0l0 2.59375l-0.078125 1.5625q0.421875 -0.546875 1.0 -0.875q0.578125 -0.34375 1.375 -0.34375q0.703125 0 1.25 0.28125q0.546875 0.28125 0.921875 0.796875q0.375 0.515625 0.5625 1.265625q0.203125 0.734375 0.203125 1.65625zm-2.0 0.078125q0 -0.65625 -0.09375 -1.109375q-0.09375 -0.46875 -0.28125 -0.765625q-0.171875 -0.296875 -0.421875 -0.4375q-0.25 -0.140625 -0.578125 -0.140625q-0.484375 0 -0.9375 0.390625q-0.4375 0.390625 -0.921875 1.0625l0 3.46875q0.21875 0.09375 0.546875 0.15625q0.34375 0.046875 0.6875 0.046875q0.453125 0 0.8125 -0.1875q0.375 -0.1875 0.640625 -0.53125q0.265625 -0.34375 0.40625 -0.84375q0.140625 -0.5 0.140625 -1.109375zm10.5625 -0.546875q0 0.1875 -0.015625 0.5q0 0.3125 -0.03125 0.59375l-5.21875 0q0 0.515625 0.15625 0.921875q0.171875 0.390625 0.453125 0.671875q0.296875 0.265625 0.703125 0.40625q0.421875 0.140625 0.921875 0.140625q0.578125 0 1.234375 -0.09375q0.65625 -0.09375 1.375 -0.296875l0 1.515625q-0.3125 0.09375 -0.671875 0.171875q-0.359375 0.0625 -0.734375 0.109375q-0.375 0.0625 -0.765625 0.09375q-0.375 0.03125 -0.734375 0.03125q-0.90625 0 -1.625 -0.265625q-0.71875 -0.265625 -1.21875 -0.765625q-0.5 -0.5 -0.765625 -1.234375q-0.265625 -0.75 -0.265625 -1.734375q0 -0.96875 0.265625 -1.75q0.265625 -0.796875 0.75 -1.359375q0.484375 -0.578125 1.171875 -0.875q0.703125 -0.3125 1.546875 -0.3125q0.84375 0 1.484375 0.265625q0.65625 0.25 1.09375 0.71875q0.4375 0.46875 0.65625 1.125q0.234375 0.640625 0.234375 1.421875zm-1.9375 -0.28125q0.015625 -0.46875 -0.109375 -0.8125q-0.125 -0.34375 -0.34375 -0.5625q-0.21875 -0.234375 -0.5 -0.34375q-0.28125 -0.109375 -0.609375 -0.109375q-0.71875 0 -1.1875 0.484375q-0.453125 0.46875 -0.546875 1.34375l3.296875 0zm10.59375 1.59375q0 0.8125 -0.34375 1.453125q-0.34375 0.640625 -0.953125 1.078125q-0.609375 0.4375 -1.4375 0.671875q-0.828125 0.21875 -1.796875 0.21875q-0.234375 0 -0.515625 -0.015625q-0.265625 -0.015625 -0.546875 -0.046875q-0.28125 -0.015625 -0.546875 -0.046875q-0.265625 -0.03125 -0.5 -0.078125l0 -1.671875q0.453125 0.109375 1.03125 0.1875q0.578125 0.0625 1.171875 0.0625q1.171875 0 1.78125 -0.453125q0.625 -0.453125 0.625 -1.25q0 -0.828125 -0.578125 -1.21875q-0.5625 -0.40625 -1.84375 -0.40625l-2.0 0l0 -5.4375l5.890625 0l0 1.796875l-4.109375 0l0 2.078125l0.734375 0q0.78125 0 1.484375 0.140625q0.71875 0.140625 1.265625 0.5q0.546875 0.34375 0.859375 0.9375q0.328125 0.59375 0.328125 1.5zm5.296875 0.375q0.328125 0 0.609375 0.125q0.28125 0.125 0.484375 0.328125q0.203125 0.203125 0.3125 0.484375q0.125 0.28125 0.125 0.609375q0 0.3125 -0.125 0.59375q-0.109375 0.265625 -0.3125 0.484375q-0.203125 0.203125 -0.484375 0.328125q-0.28125 0.125 -0.609375 0.125q-0.3125 0 -0.59375 -0.125q-0.265625 -0.125 -0.46875 -0.328125q-0.203125 -0.21875 -0.328125 -0.484375q-0.109375 -0.28125 -0.109375 -0.59375q0 -0.328125 0.109375 -0.609375q0.125 -0.28125 0.328125 -0.484375q0.203125 -0.203125 0.46875 -0.328125q0.28125 -0.125 0.59375 -0.125zm11.125 2.890625l0 -5.40625q0 -0.296875 -0.015625 -0.515625q-0.015625 -0.234375 -0.0625 -0.375q-0.046875 -0.15625 -0.140625 -0.21875q-0.078125 -0.078125 -0.234375 -0.078125q-0.25 0 -0.484375 0.328125q-0.234375 0.328125 -0.53125 1.109375l0 5.15625l-1.625 0l0 -5.40625q0 -0.296875 -0.015625 -0.515625q-0.015625 -0.234375 -0.0625 -0.375q-0.046875 -0.15625 -0.140625 -0.21875q-0.09375 -0.078125 -0.25 -0.078125q-0.203125 0 -0.453125 0.328125q-0.25 0.328125 -0.5625 1.109375l0 5.15625l-1.640625 0l0 -7.9375l1.40625 0l0.03125 1.15625q0.171875 -0.359375 0.34375 -0.609375q0.171875 -0.25 0.359375 -0.40625q0.203125 -0.15625 0.421875 -0.21875q0.234375 -0.078125 0.515625 -0.078125q0.65625 0 1.0 0.34375q0.359375 0.34375 0.40625 0.96875q0.1875 -0.359375 0.359375 -0.609375q0.1875 -0.25 0.390625 -0.40625q0.203125 -0.15625 0.421875 -0.21875q0.234375 -0.078125 0.515625 -0.078125q0.875 0 1.28125 0.609375q0.421875 0.59375 0.421875 1.78125l0 5.703125l-1.65625 0zm9.015625 -0.234375q0 0.90625 -0.265625 1.5625q-0.265625 0.65625 -0.75 1.09375q-0.484375 0.4375 -1.171875 0.640625q-0.6875 0.21875 -1.53125 0.21875q-0.6875 0 -1.28125 -0.125q-0.59375 -0.109375 -0.96875 -0.265625l0 -1.75q0.21875 0.109375 0.484375 0.21875q0.28125 0.125 0.578125 0.203125q0.3125 0.09375 0.625 0.140625q0.3125 0.0625 0.609375 0.0625q0.875 0 1.296875 -0.5q0.4375 -0.5 0.4375 -1.484375l0 -6.234375l-3.78125 0l0 -1.484375l5.71875 0l0 7.703125zm0.15625 -9.875q0 0.25 -0.09375 0.484375q-0.09375 0.21875 -0.265625 0.390625q-0.171875 0.171875 -0.40625 0.265625q-0.21875 0.09375 -0.484375 0.09375q-0.265625 0 -0.5 -0.09375q-0.21875 -0.09375 -0.390625 -0.265625q-0.171875 -0.171875 -0.265625 -0.390625q-0.09375 -0.234375 -0.09375 -0.484375q0 -0.265625 0.09375 -0.484375q0.09375 -0.234375 0.265625 -0.40625q0.171875 -0.171875 0.390625 -0.265625q0.234375 -0.09375 0.5 -0.09375q0.265625 0 0.484375 0.09375q0.234375 0.09375 0.40625 0.265625q0.171875 0.171875 0.265625 0.40625q0.09375 0.21875 0.09375 0.484375zm9.375 7.765625q0 0.6875 -0.3125 1.171875q-0.296875 0.46875 -0.796875 0.78125q-0.484375 0.296875 -1.125 0.4375q-0.625 0.140625 -1.28125 0.140625q-0.875 0 -1.578125 -0.09375q-0.703125 -0.078125 -1.328125 -0.234375l0 -1.71875q0.734375 0.296875 1.46875 0.4375q0.734375 0.140625 1.375 0.140625q0.75 0 1.125 -0.234375q0.375 -0.25 0.375 -0.625q0 -0.1875 -0.078125 -0.328125q-0.078125 -0.15625 -0.296875 -0.28125q-0.21875 -0.140625 -0.609375 -0.28125q-0.390625 -0.15625 -1.015625 -0.328125q-0.59375 -0.171875 -1.03125 -0.375q-0.4375 -0.203125 -0.734375 -0.484375q-0.28125 -0.28125 -0.4375 -0.65625q-0.140625 -0.375 -0.140625 -0.875q0 -0.484375 0.21875 -0.90625q0.21875 -0.4375 0.65625 -0.75q0.4375 -0.328125 1.078125 -0.515625q0.65625 -0.1875 1.515625 -0.1875q0.75 0 1.328125 0.078125q0.578125 0.078125 1.03125 0.171875l0 1.546875q-0.6875 -0.21875 -1.28125 -0.296875q-0.59375 -0.09375 -1.1875 -0.09375q-0.578125 0 -0.9375 0.21875q-0.359375 0.203125 -0.359375 0.578125q0 0.171875 0.0625 0.3125q0.078125 0.140625 0.28125 0.28125q0.21875 0.125 0.578125 0.28125q0.375 0.140625 0.984375 0.3125q0.6875 0.1875 1.15625 0.421875q0.46875 0.21875 0.75 0.5q0.296875 0.28125 0.421875 0.640625q0.125 0.359375 0.125 0.8125z" fill-rule="nonzero"/><path fill="#b6d7a8" d="m427.28412 142.99213l163.71655 0l0 50.015747l-163.71655 0z" fill-rule="evenodd"/><path stroke="#000000" stroke-width="1.0" stroke-linejoin="round" stroke-linecap="butt" d="m427.28412 142.99213l163.71655 0l0 50.015747l-163.71655 0z" fill-rule="evenodd"/><path fill="#000000" d="m458.04083 173.86l-0.046875 -1.171875q-0.25 0.296875 -0.515625 0.546875q-0.265625 0.25 -0.578125 0.4375q-0.296875 0.171875 -0.640625 0.265625q-0.34375 0.109375 -0.765625 0.109375q-0.703125 0 -1.25 -0.28125q-0.546875 -0.296875 -0.921875 -0.8125q-0.375 -0.515625 -0.578125 -1.25q-0.1875 -0.75 -0.1875 -1.671875q0 -1.09375 0.3125 -1.890625q0.3125 -0.796875 0.859375 -1.328125q0.546875 -0.53125 1.296875 -0.78125q0.75 -0.25 1.625 -0.25q0.296875 0 0.59375 0.046875q0.3125 0.03125 0.546875 0.09375l0 -3.109375l1.90625 0l0 11.046875l-1.65625 0zm-3.484375 -3.90625q0 0.65625 0.09375 1.125q0.09375 0.453125 0.265625 0.75q0.171875 0.296875 0.421875 0.4375q0.265625 0.140625 0.59375 0.140625q0.484375 0 0.921875 -0.390625q0.4375 -0.390625 0.9375 -1.078125l0 -3.46875q-0.234375 -0.078125 -0.5625 -0.125q-0.328125 -0.0625 -0.671875 -0.0625q-0.453125 0 -0.828125 0.1875q-0.359375 0.1875 -0.625 0.53125q-0.265625 0.34375 -0.40625 0.84375q-0.140625 0.484375 -0.140625 1.109375zm14.203125 -0.671875q0 0.1875 -0.015625 0.5q0 0.3125 -0.03125 0.59375l-5.21875 0q0 0.515625 0.15625 0.921875q0.171875 0.390625 0.453125 0.671875q0.296875 0.265625 0.703125 0.40625q0.421875 0.140625 0.921875 0.140625q0.578125 0 1.234375 -0.09375q0.65625 -0.09375 1.375 -0.296875l0 1.515625q-0.3125 0.09375 -0.671875 0.171875q-0.359375 0.0625 -0.734375 0.109375q-0.375 0.0625 -0.765625 0.09375q-0.375 0.03125 -0.734375 0.03125q-0.90625 0 -1.625 -0.265625q-0.71875 -0.265625 -1.21875 -0.765625q-0.5 -0.5 -0.765625 -1.234375q-0.265625 -0.75 -0.265625 -1.734375q0 -0.96875 0.265625 -1.75q0.265625 -0.796875 0.75 -1.359375q0.484375 -0.578125 1.171875 -0.875q0.703125 -0.3125 1.546875 -0.3125q0.84375 0 1.484375 0.265625q0.65625 0.25 1.09375 0.71875q0.4375 0.46875 0.65625 1.125q0.234375 0.640625 0.234375 1.421875zm-1.9375 -0.28125q0.015625 -0.46875 -0.109375 -0.8125q-0.125 -0.34375 -0.34375 -0.5625q-0.21875 -0.234375 -0.5 -0.34375q-0.28125 -0.109375 -0.609375 -0.109375q-0.71875 0 -1.1875 0.484375q-0.453125 0.46875 -0.546875 1.34375l3.296875 0zm10.96875 0.75q0 1.09375 -0.3125 1.890625q-0.3125 0.796875 -0.859375 1.328125q-0.546875 0.515625 -1.296875 0.78125q-0.75 0.25 -1.640625 0.25q-0.296875 0 -0.59375 -0.046875q-0.296875 -0.03125 -0.53125 -0.09375l0 3.109375l-1.90625 0l0 -11.046875l1.640625 0l0.046875 1.171875q0.25 -0.3125 0.5 -0.5625q0.265625 -0.25 0.5625 -0.421875q0.3125 -0.171875 0.65625 -0.265625q0.359375 -0.09375 0.796875 -0.09375q0.703125 0 1.25 0.28125q0.546875 0.28125 0.921875 0.796875q0.375 0.515625 0.5625 1.265625q0.203125 0.734375 0.203125 1.65625zm-2.0 0.078125q0 -0.65625 -0.09375 -1.109375q-0.09375 -0.46875 -0.28125 -0.765625q-0.171875 -0.296875 -0.421875 -0.4375q-0.25 -0.140625 -0.578125 -0.140625q-0.484375 0 -0.9375 0.390625q-0.4375 0.390625 -0.921875 1.0625l0 3.46875q0.21875 0.09375 0.546875 0.15625q0.34375 0.046875 0.6875 0.046875q0.453125 0 0.8125 -0.1875q0.375 -0.1875 0.640625 -0.53125q0.265625 -0.34375 0.40625 -0.84375q0.140625 -0.5 0.140625 -1.109375zm10.53125 0.90625q0 0.765625 -0.28125 1.375q-0.28125 0.59375 -0.859375 1.03125q-0.578125 0.421875 -1.46875 0.65625q-0.875 0.21875 -2.078125 0.21875q-0.265625 0 -0.5625 -0.015625q-0.28125 0 -0.578125 -0.03125q-0.28125 -0.015625 -0.5625 -0.046875q-0.265625 -0.015625 -0.484375 -0.0625l0 -1.65625q0.484375 0.09375 1.09375 0.15625q0.625 0.046875 1.28125 0.046875q0.65625 0 1.125 -0.109375q0.46875 -0.109375 0.765625 -0.3125q0.3125 -0.203125 0.453125 -0.5q0.140625 -0.3125 0.140625 -0.703125q0 -0.328125 -0.15625 -0.59375q-0.140625 -0.28125 -0.453125 -0.46875q-0.296875 -0.203125 -0.765625 -0.296875q-0.46875 -0.109375 -1.125 -0.109375l-1.125 0l0 -1.453125l1.03125 0q0.609375 0 1.015625 -0.125q0.40625 -0.125 0.640625 -0.328125q0.234375 -0.203125 0.328125 -0.46875q0.109375 -0.28125 0.109375 -0.59375q0 -0.625 -0.40625 -0.9375q-0.40625 -0.328125 -1.25 -0.328125q-0.609375 0 -1.203125 0.125q-0.59375 0.109375 -1.234375 0.296875l0 -1.59375q0.359375 -0.125 0.671875 -0.203125q0.328125 -0.078125 0.640625 -0.125q0.328125 -0.0625 0.65625 -0.078125q0.328125 -0.03125 0.671875 -0.03125q0.84375 0 1.484375 0.1875q0.640625 0.171875 1.0625 0.515625q0.4375 0.328125 0.65625 0.8125q0.21875 0.46875 0.21875 1.046875q0 0.9375 -0.421875 1.515625q-0.421875 0.5625 -1.1875 0.875q0.484375 0.078125 0.875 0.265625q0.40625 0.1875 0.6875 0.5q0.296875 0.296875 0.4375 0.6875q0.15625 0.390625 0.15625 0.859375zm2.796875 -0.28125l0 -1.703125l4.859375 0l0 1.703125l-4.859375 0zm14.796875 0.28125q0 0.765625 -0.28125 1.375q-0.28125 0.59375 -0.859375 1.03125q-0.578125 0.421875 -1.46875 0.65625q-0.875 0.21875 -2.078125 0.21875q-0.265625 0 -0.5625 -0.015625q-0.28125 0 -0.578125 -0.03125q-0.28125 -0.015625 -0.5625 -0.046875q-0.265625 -0.015625 -0.484375 -0.0625l0 -1.65625q0.484375 0.09375 1.09375 0.15625q0.625 0.046875 1.28125 0.046875q0.65625 0 1.125 -0.109375q0.46875 -0.109375 0.765625 -0.3125q0.3125 -0.203125 0.453125 -0.5q0.140625 -0.3125 0.140625 -0.703125q0 -0.328125 -0.15625 -0.59375q-0.140625 -0.28125 -0.453125 -0.46875q-0.296875 -0.203125 -0.765625 -0.296875q-0.46875 -0.109375 -1.125 -0.109375l-1.125 0l0 -1.453125l1.03125 0q0.609375 0 1.015625 -0.125q0.40625 -0.125 0.640625 -0.328125q0.234375 -0.203125 0.328125 -0.46875q0.109375 -0.28125 0.109375 -0.59375q0 -0.625 -0.40625 -0.9375q-0.40625 -0.328125 -1.25 -0.328125q-0.609375 0 -1.203125 0.125q-0.59375 0.109375 -1.234375 0.296875l0 -1.59375q0.359375 -0.125 0.671875 -0.203125q0.328125 -0.078125 0.640625 -0.125q0.328125 -0.0625 0.65625 -0.078125q0.328125 -0.03125 0.671875 -0.03125q0.84375 0 1.484375 0.1875q0.640625 0.171875 1.0625 0.515625q0.4375 0.328125 0.65625 0.8125q0.21875 0.46875 0.21875 1.046875q0 0.9375 -0.421875 1.515625q-0.421875 0.5625 -1.1875 0.875q0.484375 0.078125 0.875 0.265625q0.40625 0.1875 0.6875 0.5q0.296875 0.296875 0.4375 0.6875q0.15625 0.390625 0.15625 0.859375zm8.34375 2.8125q-0.5625 0.234375 -1.171875 0.34375q-0.59375 0.109375 -1.25 0.109375q-0.953125 0 -1.703125 -0.25q-0.75 -0.265625 -1.28125 -0.765625q-0.515625 -0.515625 -0.796875 -1.265625q-0.265625 -0.75 -0.265625 -1.734375q0 -0.953125 0.296875 -1.71875q0.296875 -0.78125 0.84375 -1.328125q0.546875 -0.546875 1.3125 -0.84375q0.78125 -0.296875 1.71875 -0.296875q0.78125 0 1.296875 0.078125q0.53125 0.078125 0.953125 0.203125l0 1.859375q-0.484375 -0.25 -1.046875 -0.375q-0.5625 -0.140625 -1.078125 -0.140625q-0.53125 0 -0.953125 0.1875q-0.421875 0.171875 -0.71875 0.5q-0.28125 0.3125 -0.4375 0.78125q-0.140625 0.453125 -0.140625 1.0q0 0.5625 0.15625 1.015625q0.171875 0.453125 0.46875 0.78125q0.296875 0.3125 0.71875 0.484375q0.421875 0.15625 0.9375 0.15625q0.25 0 0.53125 -0.03125q0.28125 -0.03125 0.546875 -0.09375q0.28125 -0.078125 0.546875 -0.15625q0.28125 -0.09375 0.515625 -0.1875l0 1.6875zm9.484375 -2.921875q0 0.765625 -0.28125 1.40625q-0.28125 0.625 -0.78125 1.078125q-0.5 0.4375 -1.1875 0.6875q-0.6875 0.25 -1.5 0.25q-1.796875 0 -2.75 -1.125q-0.9375 -1.140625 -0.9375 -3.453125q0 -0.84375 0.09375 -1.59375q0.109375 -0.765625 0.34375 -1.40625q0.25 -0.65625 0.640625 -1.171875q0.40625 -0.53125 1.0 -0.890625q0.609375 -0.359375 1.421875 -0.5625q0.828125 -0.203125 1.921875 -0.203125l1.15625 0l0 1.625l-1.359375 0q-0.84375 0 -1.421875 0.171875q-0.5625 0.171875 -0.921875 0.5q-0.359375 0.3125 -0.546875 0.78125q-0.171875 0.453125 -0.21875 1.03125l-0.015625 0.1875q0.40625 -0.203125 0.921875 -0.328125q0.515625 -0.125 1.09375 -0.125q0.828125 0 1.453125 0.21875q0.625 0.21875 1.03125 0.625q0.421875 0.40625 0.625 0.984375q0.21875 0.578125 0.21875 1.3125zm-1.984375 0.078125q0 -0.359375 -0.09375 -0.65625q-0.09375 -0.296875 -0.296875 -0.515625q-0.203125 -0.21875 -0.515625 -0.328125q-0.296875 -0.125 -0.734375 -0.125q-0.25 0 -0.5 0.046875q-0.234375 0.03125 -0.46875 0.109375q-0.234375 0.0625 -0.4375 0.15625q-0.203125 0.078125 -0.375 0.171875q0 0.796875 0.109375 1.34375q0.109375 0.53125 0.328125 0.875q0.234375 0.34375 0.5625 0.5q0.328125 0.15625 0.765625 0.15625q0.375 0 0.671875 -0.125q0.3125 -0.125 0.53125 -0.359375q0.21875 -0.234375 0.328125 -0.546875q0.125 -0.3125 0.125 -0.703125zm10.796875 -6.265625q-0.34375 -0.109375 -0.828125 -0.1875q-0.46875 -0.078125 -0.953125 -0.078125q-0.34375 0 -0.640625 0.09375q-0.28125 0.09375 -0.5 0.296875q-0.203125 0.1875 -0.328125 0.484375q-0.109375 0.296875 -0.109375 0.734375l0 1.28125l3.109375 0l0 1.484375l-3.109375 0l0 5.3125l-1.921875 0l0 -5.3125l-2.3125 0l0 -1.484375l2.3125 0l0 -1.203125q0 -0.84375 0.234375 -1.453125q0.25 -0.609375 0.703125 -0.984375q0.453125 -0.390625 1.078125 -0.5625q0.640625 -0.1875 1.421875 -0.1875q0.515625 0 0.96875 0.0625q0.46875 0.0625 0.875 0.15625l0 1.546875zm-8.21875 1.484375l0 0zm13.15625 5.046875q0.328125 0 0.609375 0.125q0.28125 0.125 0.484375 0.328125q0.203125 0.203125 0.3125 0.484375q0.125 0.28125 0.125 0.609375q0 0.3125 -0.125 0.59375q-0.109375 0.265625 -0.3125 0.484375q-0.203125 0.203125 -0.484375 0.328125q-0.28125 0.125 -0.609375 0.125q-0.3125 0 -0.59375 -0.125q-0.265625 -0.125 -0.46875 -0.328125q-0.203125 -0.21875 -0.328125 -0.484375q-0.109375 -0.28125 -0.109375 -0.59375q0 -0.328125 0.109375 -0.609375q0.125 -0.28125 0.328125 -0.484375q0.203125 -0.203125 0.46875 -0.328125q0.28125 -0.125 0.59375 -0.125zm11.125 2.890625l0 -5.40625q0 -0.296875 -0.015625 -0.515625q-0.015625 -0.234375 -0.0625 -0.375q-0.046875 -0.15625 -0.140625 -0.21875q-0.078125 -0.078125 -0.234375 -0.078125q-0.25 0 -0.484375 0.328125q-0.234375 0.328125 -0.53125 1.109375l0 5.15625l-1.625 0l0 -5.40625q0 -0.296875 -0.015625 -0.515625q-0.015625 -0.234375 -0.0625 -0.375q-0.046875 -0.15625 -0.140625 -0.21875q-0.09375 -0.078125 -0.25 -0.078125q-0.203125 0 -0.453125 0.328125q-0.25 0.328125 -0.5625 1.109375l0 5.15625l-1.640625 0l0 -7.9375l1.40625 0l0.03125 1.15625q0.171875 -0.359375 0.34375 -0.609375q0.171875 -0.25 0.359375 -0.40625q0.203125 -0.15625 0.421875 -0.21875q0.234375 -0.078125 0.515625 -0.078125q0.65625 0 1.0 0.34375q0.359375 0.34375 0.40625 0.96875q0.1875 -0.359375 0.359375 -0.609375q0.1875 -0.25 0.390625 -0.40625q0.203125 -0.15625 0.421875 -0.21875q0.234375 -0.078125 0.515625 -0.078125q0.875 0 1.28125 0.609375q0.421875 0.59375 0.421875 1.78125l0 5.703125l-1.65625 0zm9.015625 -0.234375q0 0.90625 -0.265625 1.5625q-0.265625 0.65625 -0.75 1.09375q-0.484375 0.4375 -1.171875 0.640625q-0.6875 0.21875 -1.53125 0.21875q-0.6875 0 -1.28125 -0.125q-0.59375 -0.109375 -0.96875 -0.265625l0 -1.75q0.21875 0.109375 0.484375 0.21875q0.28125 0.125 0.578125 0.203125q0.3125 0.09375 0.625 0.140625q0.3125 0.0625 0.609375 0.0625q0.875 0 1.296875 -0.5q0.4375 -0.5 0.4375 -1.484375l0 -6.234375l-3.78125 0l0 -1.484375l5.71875 0l0 7.703125zm0.15625 -9.875q0 0.25 -0.09375 0.484375q-0.09375 0.21875 -0.265625 0.390625q-0.171875 0.171875 -0.40625 0.265625q-0.21875 0.09375 -0.484375 0.09375q-0.265625 0 -0.5 -0.09375q-0.21875 -0.09375 -0.390625 -0.265625q-0.171875 -0.171875 -0.265625 -0.390625q-0.09375 -0.234375 -0.09375 -0.484375q0 -0.265625 0.09375 -0.484375q0.09375 -0.234375 0.265625 -0.40625q0.171875 -0.171875 0.390625 -0.265625q0.234375 -0.09375 0.5 -0.09375q0.265625 0 0.484375 0.09375q0.234375 0.09375 0.40625 0.265625q0.171875 0.171875 0.265625 0.40625q0.09375 0.21875 0.09375 0.484375zm9.375 7.765625q0 0.6875 -0.3125 1.171875q-0.296875 0.46875 -0.796875 0.78125q-0.484375 0.296875 -1.125 0.4375q-0.625 0.140625 -1.28125 0.140625q-0.875 0 -1.578125 -0.09375q-0.703125 -0.078125 -1.328125 -0.234375l0 -1.71875q0.734375 0.296875 1.46875 0.4375q0.734375 0.140625 1.375 0.140625q0.75 0 1.125 -0.234375q0.375 -0.25 0.375 -0.625q0 -0.1875 -0.078125 -0.328125q-0.078125 -0.15625 -0.296875 -0.28125q-0.21875 -0.140625 -0.609375 -0.28125q-0.390625 -0.15625 -1.015625 -0.328125q-0.59375 -0.171875 -1.03125 -0.375q-0.4375 -0.203125 -0.734375 -0.484375q-0.28125 -0.28125 -0.4375 -0.65625q-0.140625 -0.375 -0.140625 -0.875q0 -0.484375 0.21875 -0.90625q0.21875 -0.4375 0.65625 -0.75q0.4375 -0.328125 1.078125 -0.515625q0.65625 -0.1875 1.515625 -0.1875q0.75 0 1.328125 0.078125q0.578125 0.078125 1.03125 0.171875l0 1.546875q-0.6875 -0.21875 -1.28125 -0.296875q-0.59375 -0.09375 -1.1875 -0.09375q-0.578125 0 -0.9375 0.21875q-0.359375 0.203125 -0.359375 0.578125q0 0.171875 0.0625 0.3125q0.078125 0.140625 0.28125 0.28125q0.21875 0.125 0.578125 0.28125q0.375 0.140625 0.984375 0.3125q0.6875 0.1875 1.15625 0.421875q0.46875 0.21875 0.75 0.5q0.296875 0.28125 0.421875 0.640625q0.125 0.359375 0.125 0.8125z" fill-rule="nonzero"/><path fill="#d9d9d9" d="m20.998032 142.99213l163.71654 0l0 50.015747l-163.71654 0z" fill-rule="evenodd"/><path stroke="#000000" stroke-width="1.0" stroke-linejoin="round" stroke-linecap="butt" d="m20.998032 142.99213l163.71654 0l0 50.015747l-163.71654 0z" fill-rule="evenodd"/><path fill="#000000" d="m51.754738 173.86l-0.046875 -1.171875q-0.25 0.296875 -0.515625 0.546875q-0.265625 0.25 -0.578125 0.4375q-0.296875 0.171875 -0.640625 0.265625q-0.34375 0.109375 -0.765625 0.109375q-0.703125 0 -1.25 -0.28125q-0.546875 -0.296875 -0.921875 -0.8125q-0.375 -0.515625 -0.578125 -1.25q-0.1875 -0.75 -0.1875 -1.671875q0 -1.09375 0.3125 -1.890625q0.3125 -0.796875 0.859375 -1.328125q0.546875 -0.53125 1.296875 -0.78125q0.75 -0.25 1.625 -0.25q0.296875 0 0.59375 0.046875q0.3125 0.03125 0.546875 0.09375l0 -3.109375l1.90625 0l0 11.046875l-1.65625 0zm-3.484375 -3.90625q0 0.65625 0.09375 1.125q0.09375 0.453125 0.265625 0.75q0.171875 0.296875 0.421875 0.4375q0.265625 0.140625 0.59375 0.140625q0.484375 0 0.921875 -0.390625q0.4375 -0.390625 0.9375 -1.078125l0 -3.46875q-0.234375 -0.078125 -0.5625 -0.125q-0.328125 -0.0625 -0.671875 -0.0625q-0.453125 0 -0.828125 0.1875q-0.359375 0.1875 -0.625 0.53125q-0.265625 0.34375 -0.40625 0.84375q-0.140625 0.484375 -0.140625 1.109375zm14.203125 -0.671875q0 0.1875 -0.015625 0.5q0 0.3125 -0.03125 0.59375l-5.21875 0q0 0.515625 0.15625 0.921875q0.171875 0.390625 0.453125 0.671875q0.296875 0.265625 0.703125 0.40625q0.421875 0.140625 0.921875 0.140625q0.578125 0 1.234375 -0.09375q0.65625 -0.09375 1.375 -0.296875l0 1.515625q-0.3125 0.09375 -0.671875 0.171875q-0.359375 0.0625 -0.734375 0.109375q-0.375 0.0625 -0.765625 0.09375q-0.375 0.03125 -0.734375 0.03125q-0.90625 0 -1.625 -0.265625q-0.71875 -0.265625 -1.21875 -0.765625q-0.5 -0.5 -0.765625 -1.234375q-0.265625 -0.75 -0.265625 -1.734375q0 -0.96875 0.265625 -1.75q0.265625 -0.796875 0.75 -1.359375q0.484375 -0.578125 1.171875 -0.875q0.703125 -0.3125 1.546875 -0.3125q0.84375 0 1.484375 0.265625q0.65625 0.25 1.09375 0.71875q0.4375 0.46875 0.65625 1.125q0.234375 0.640625 0.234375 1.421875zm-1.9375 -0.28125q0.015625 -0.46875 -0.109375 -0.8125q-0.125 -0.34375 -0.34375 -0.5625q-0.21875 -0.234375 -0.5 -0.34375q-0.28125 -0.109375 -0.609375 -0.109375q-0.71875 0 -1.1875 0.484375q-0.453125 0.46875 -0.546875 1.34375l3.296875 0zm10.96875 0.75q0 1.09375 -0.3125 1.890625q-0.3125 0.796875 -0.859375 1.328125q-0.546875 0.515625 -1.296875 0.78125q-0.75 0.25 -1.640625 0.25q-0.296875 0 -0.59375 -0.046875q-0.296875 -0.03125 -0.53125 -0.09375l0 3.109375l-1.90625 0l0 -11.046875l1.640625 0l0.046875 1.171875q0.25 -0.3125 0.5 -0.5625q0.265625 -0.25 0.5625 -0.421875q0.3125 -0.171875 0.65625 -0.265625q0.359375 -0.09375 0.796875 -0.09375q0.703125 0 1.25 0.28125q0.546875 0.28125 0.921875 0.796875q0.375 0.515625 0.5625 1.265625q0.203125 0.734375 0.203125 1.65625zm-2.0 0.078125q0 -0.65625 -0.09375 -1.109375q-0.09375 -0.46875 -0.28125 -0.765625q-0.171875 -0.296875 -0.421875 -0.4375q-0.25 -0.140625 -0.578125 -0.140625q-0.484375 0 -0.9375 0.390625q-0.4375 0.390625 -0.921875 1.0625l0 3.46875q0.21875 0.09375 0.546875 0.15625q0.34375 0.046875 0.6875 0.046875q0.453125 0 0.8125 -0.1875q0.375 -0.1875 0.640625 -0.53125q0.265625 -0.34375 0.40625 -0.84375q0.140625 -0.5 0.140625 -1.109375zm3.75 4.03125l0 -1.703125l2.609375 0l0 -6.5625l-2.265625 1.25l-0.625 -1.546875l3.234375 -1.71875l1.609375 0l0 8.578125l2.234375 0l0 1.703125l-6.796875 0zm9.578125 -3.40625l0 -1.703125l4.859375 0l0 1.703125l-4.859375 0zm15.0625 -0.703125q0 1.09375 -0.3125 1.890625q-0.3125 0.796875 -0.859375 1.328125q-0.546875 0.515625 -1.296875 0.78125q-0.75 0.25 -1.640625 0.25q-0.859375 0 -1.609375 -0.140625q-0.75 -0.125 -1.421875 -0.34375l0 -10.703125l1.90625 0l0 2.59375l-0.078125 1.5625q0.421875 -0.546875 1.0 -0.875q0.578125 -0.34375 1.375 -0.34375q0.703125 0 1.25 0.28125q0.546875 0.28125 0.921875 0.796875q0.375 0.515625 0.5625 1.265625q0.203125 0.734375 0.203125 1.65625zm-2.0 0.078125q0 -0.65625 -0.09375 -1.109375q-0.09375 -0.46875 -0.28125 -0.765625q-0.171875 -0.296875 -0.421875 -0.4375q-0.25 -0.140625 -0.578125 -0.140625q-0.484375 0 -0.9375 0.390625q-0.4375 0.390625 -0.921875 1.0625l0 3.46875q0.21875 0.09375 0.546875 0.15625q0.34375 0.046875 0.6875 0.046875q0.453125 0 0.8125 -0.1875q0.375 -0.1875 0.640625 -0.53125q0.265625 -0.34375 0.40625 -0.84375q0.140625 -0.5 0.140625 -1.109375zm3.578125 4.03125l0 -1.40625l2.40625 -2.421875q0.6875 -0.671875 1.09375 -1.15625q0.40625 -0.5 0.625 -0.890625q0.234375 -0.390625 0.296875 -0.71875q0.078125 -0.328125 0.078125 -0.671875q0 -0.296875 -0.09375 -0.546875q-0.09375 -0.265625 -0.28125 -0.453125q-0.171875 -0.203125 -0.453125 -0.3125q-0.265625 -0.109375 -0.625 -0.109375q-0.59375 0 -1.109375 0.265625q-0.515625 0.25 -0.984375 0.6875l-1.0 -1.296875q0.65625 -0.609375 1.484375 -0.984375q0.84375 -0.375 1.8125 -0.375q0.75 0 1.359375 0.203125q0.609375 0.1875 1.03125 0.5625q0.4375 0.375 0.671875 0.9375q0.25 0.5625 0.25 1.296875q0 0.609375 -0.171875 1.140625q-0.15625 0.515625 -0.46875 1.015625q-0.3125 0.5 -0.78125 1.0q-0.453125 0.5 -1.03125 1.0625l-1.484375 1.40625l4.296875 0l0 1.765625l-6.921875 0zm15.296875 -0.3125q-0.5625 0.234375 -1.171875 0.34375q-0.59375 0.109375 -1.25 0.109375q-0.953125 0 -1.703125 -0.25q-0.75 -0.265625 -1.28125 -0.765625q-0.515625 -0.515625 -0.796875 -1.265625q-0.265625 -0.75 -0.265625 -1.734375q0 -0.953125 0.296875 -1.71875q0.296875 -0.78125 0.84375 -1.328125q0.546875 -0.546875 1.3125 -0.84375q0.78125 -0.296875 1.71875 -0.296875q0.78125 0 1.296875 0.078125q0.53125 0.078125 0.953125 0.203125l0 1.859375q-0.484375 -0.25 -1.046875 -0.375q-0.5625 -0.140625 -1.078125 -0.140625q-0.53125 0 -0.953125 0.1875q-0.421875 0.171875 -0.71875 0.5q-0.28125 0.3125 -0.4375 0.78125q-0.140625 0.453125 -0.140625 1.0q0 0.5625 0.15625 1.015625q0.171875 0.453125 0.46875 0.78125q0.296875 0.3125 0.71875 0.484375q0.421875 0.15625 0.9375 0.15625q0.25 0 0.53125 -0.03125q0.28125 -0.03125 0.546875 -0.09375q0.28125 -0.078125 0.546875 -0.15625q0.28125 -0.09375 0.515625 -0.1875l0 1.6875zm9.25 -2.8125q0 0.765625 -0.28125 1.375q-0.28125 0.59375 -0.859375 1.03125q-0.578125 0.421875 -1.46875 0.65625q-0.875 0.21875 -2.078125 0.21875q-0.265625 0 -0.5625 -0.015625q-0.28125 0 -0.578125 -0.03125q-0.28125 -0.015625 -0.5625 -0.046875q-0.265625 -0.015625 -0.484375 -0.0625l0 -1.65625q0.484375 0.09375 1.09375 0.15625q0.625 0.046875 1.28125 0.046875q0.65625 0 1.125 -0.109375q0.46875 -0.109375 0.765625 -0.3125q0.3125 -0.203125 0.453125 -0.5q0.140625 -0.3125 0.140625 -0.703125q0 -0.328125 -0.15625 -0.59375q-0.140625 -0.28125 -0.453125 -0.46875q-0.296875 -0.203125 -0.765625 -0.296875q-0.46875 -0.109375 -1.125 -0.109375l-1.125 0l0 -1.453125l1.03125 0q0.609375 0 1.015625 -0.125q0.40625 -0.125 0.640625 -0.328125q0.234375 -0.203125 0.328125 -0.46875q0.109375 -0.28125 0.109375 -0.59375q0 -0.625 -0.40625 -0.9375q-0.40625 -0.328125 -1.25 -0.328125q-0.609375 0 -1.203125 0.125q-0.59375 0.109375 -1.234375 0.296875l0 -1.59375q0.359375 -0.125 0.671875 -0.203125q0.328125 -0.078125 0.640625 -0.125q0.328125 -0.0625 0.65625 -0.078125q0.328125 -0.03125 0.671875 -0.03125q0.84375 0 1.484375 0.1875q0.640625 0.171875 1.0625 0.515625q0.4375 0.328125 0.65625 0.8125q0.21875 0.46875 0.21875 1.046875q0 0.9375 -0.421875 1.515625q-0.421875 0.5625 -1.1875 0.875q0.484375 0.078125 0.875 0.265625q0.40625 0.1875 0.6875 0.5q0.296875 0.296875 0.4375 0.6875q0.15625 0.390625 0.15625 0.859375zm5.1874924 0.234375q0.328125 0 0.609375 0.125q0.28125 0.125 0.484375 0.328125q0.203125 0.203125 0.3125 0.484375q0.125 0.28125 0.125 0.609375q0 0.3125 -0.125 0.59375q-0.109375 0.265625 -0.3125 0.484375q-0.203125 0.203125 -0.484375 0.328125q-0.28125 0.125 -0.609375 0.125q-0.3125 0 -0.59375 -0.125q-0.265625 -0.125 -0.46875 -0.328125q-0.20311737 -0.21875 -0.32811737 -0.484375q-0.109375 -0.28125 -0.109375 -0.59375q0 -0.328125 0.109375 -0.609375q0.125 -0.28125 0.32811737 -0.484375q0.203125 -0.203125 0.46875 -0.328125q0.28125 -0.125 0.59375 -0.125zm11.125 2.890625l0 -5.40625q0 -0.296875 -0.015625 -0.515625q-0.015625 -0.234375 -0.0625 -0.375q-0.046875 -0.15625 -0.140625 -0.21875q-0.078125 -0.078125 -0.234375 -0.078125q-0.25 0 -0.484375 0.328125q-0.234375 0.328125 -0.53125 1.109375l0 5.15625l-1.625 0l0 -5.40625q0 -0.296875 -0.015625 -0.515625q-0.015625 -0.234375 -0.0625 -0.375q-0.046875 -0.15625 -0.140625 -0.21875q-0.09375 -0.078125 -0.25 -0.078125q-0.203125 0 -0.453125 0.328125q-0.25 0.328125 -0.5625 1.109375l0 5.15625l-1.640625 0l0 -7.9375l1.40625 0l0.03125 1.15625q0.171875 -0.359375 0.34375 -0.609375q0.171875 -0.25 0.359375 -0.40625q0.203125 -0.15625 0.421875 -0.21875q0.234375 -0.078125 0.515625 -0.078125q0.65625 0 1.0 0.34375q0.359375 0.34375 0.40625 0.96875q0.1875 -0.359375 0.359375 -0.609375q0.1875 -0.25 0.390625 -0.40625q0.203125 -0.15625 0.421875 -0.21875q0.234375 -0.078125 0.515625 -0.078125q0.875 0 1.28125 0.609375q0.421875 0.59375 0.421875 1.78125l0 5.703125l-1.65625 0zm9.01564 -0.234375q0 0.90625 -0.265625 1.5625q-0.26564026 0.65625 -0.75001526 1.09375q-0.484375 0.4375 -1.171875 0.640625q-0.6875 0.21875 -1.53125 0.21875q-0.6875 0 -1.28125 -0.125q-0.59375 -0.109375 -0.96875 -0.265625l0 -1.75q0.21875 0.109375 0.484375 0.21875q0.28125 0.125 0.578125 0.203125q0.3125 0.09375 0.625 0.140625q0.3125 0.0625 0.609375 0.0625q0.875 0 1.296875 -0.5q0.4375 -0.5 0.4375 -1.484375l0 -6.234375l-3.78125 0l0 -1.484375l5.7187653 0l0 7.703125zm0.15625 -9.875q0 0.25 -0.09375 0.484375q-0.09375 0.21875 -0.265625 0.390625q-0.17189026 0.171875 -0.40626526 0.265625q-0.21875 0.09375 -0.484375 0.09375q-0.265625 0 -0.5 -0.09375q-0.21875 -0.09375 -0.390625 -0.265625q-0.171875 -0.171875 -0.265625 -0.390625q-0.09375 -0.234375 -0.09375 -0.484375q0 -0.265625 0.09375 -0.484375q0.09375 -0.234375 0.265625 -0.40625q0.171875 -0.171875 0.390625 -0.265625q0.234375 -0.09375 0.5 -0.09375q0.265625 0 0.484375 0.09375q0.234375 0.09375 0.40626526 0.265625q0.171875 0.171875 0.265625 0.40625q0.09375 0.21875 0.09375 0.484375zm9.375 7.765625q0 0.6875 -0.3125 1.171875q-0.296875 0.46875 -0.796875 0.78125q-0.484375 0.296875 -1.125 0.4375q-0.625 0.140625 -1.28125 0.140625q-0.875 0 -1.578125 -0.09375q-0.703125 -0.078125 -1.328125 -0.234375l0 -1.71875q0.734375 0.296875 1.46875 0.4375q0.734375 0.140625 1.375 0.140625q0.75 0 1.125 -0.234375q0.375 -0.25 0.375 -0.625q0 -0.1875 -0.078125 -0.328125q-0.078125 -0.15625 -0.296875 -0.28125q-0.21875 -0.140625 -0.609375 -0.28125q-0.390625 -0.15625 -1.015625 -0.328125q-0.59375 -0.171875 -1.03125 -0.375q-0.4375 -0.203125 -0.734375 -0.484375q-0.28125 -0.28125 -0.4375 -0.65625q-0.140625 -0.375 -0.140625 -0.875q0 -0.484375 0.21875 -0.90625q0.21875 -0.4375 0.65625 -0.75q0.4375 -0.328125 1.078125 -0.515625q0.65625 -0.1875 1.515625 -0.1875q0.75 0 1.328125 0.078125q0.578125 0.078125 1.03125 0.171875l0 1.546875q-0.6875 -0.21875 -1.28125 -0.296875q-0.59375 -0.09375 -1.1875 -0.09375q-0.578125 0 -0.9375 0.21875q-0.359375 0.203125 -0.359375 0.578125q0 0.171875 0.0625 0.3125q0.078125 0.140625 0.28125 0.28125q0.21875 0.125 0.578125 0.28125q0.375 0.140625 0.984375 0.3125q0.6875 0.1875 1.15625 0.421875q0.46875 0.21875 0.75 0.5q0.296875 0.28125 0.421875 0.640625q0.125 0.359375 0.125 0.8125z" fill-rule="nonzero"/><path fill="#b6d7a8" d="m427.28543 265.64566l163.71652 0l0 50.015747l-163.71652 0z" fill-rule="evenodd"/><path stroke="#000000" stroke-width="1.0" stroke-linejoin="round" stroke-linecap="butt" d="m427.28543 265.64566l163.71652 0l0 50.015747l-163.71652 0z" fill-rule="evenodd"/><path fill="#000000" d="m448.6984 296.51355l-2.203125 0l-3.140625 -7.9375l2.125 0l1.640625 4.5l0.5 1.453125l0.484375 -1.390625l1.65625 -4.5625l2.046875 0l-3.109375 7.9375zm11.265625 -4.578125q0 0.1875 -0.015625 0.5q0 0.3125 -0.03125 0.59375l-5.21875 0q0 0.515625 0.15625 0.921875q0.171875 0.390625 0.453125 0.671875q0.296875 0.265625 0.703125 0.40625q0.421875 0.140625 0.921875 0.140625q0.578125 0 1.234375 -0.09375q0.65625 -0.09375 1.375 -0.296875l0 1.515625q-0.3125 0.09375 -0.671875 0.171875q-0.359375 0.0625 -0.734375 0.109375q-0.375 0.0625 -0.765625 0.09375q-0.375 0.03125 -0.734375 0.03125q-0.90625 0 -1.625 -0.265625q-0.71875 -0.265625 -1.21875 -0.765625q-0.5 -0.5 -0.765625 -1.234375q-0.265625 -0.75 -0.265625 -1.734375q0 -0.96875 0.265625 -1.75q0.265625 -0.796875 0.75 -1.359375q0.484375 -0.578125 1.171875 -0.875q0.703125 -0.3125 1.546875 -0.3125q0.84375 0 1.484375 0.265625q0.65625 0.25 1.09375 0.71875q0.4375 0.46875 0.65625 1.125q0.234375 0.640625 0.234375 1.421875zm-1.9375 -0.28125q0.015625 -0.46875 -0.109375 -0.8125q-0.125 -0.34375 -0.34375 -0.5625q-0.21875 -0.234375 -0.5 -0.34375q-0.28125 -0.109375 -0.609375 -0.109375q-0.71875 0 -1.1875 0.484375q-0.453125 0.46875 -0.546875 1.34375l3.296875 0zm8.5625 4.859375l0 -5.171875q0 -1.3125 -0.96875 -1.3125q-0.484375 0 -0.9375 0.390625q-0.4375 0.390625 -0.921875 1.0625l0 5.03125l-1.90625 0l0 -7.9375l1.640625 0l0.046875 1.171875q0.25 -0.3125 0.5 -0.5625q0.265625 -0.25 0.5625 -0.421875q0.3125 -0.171875 0.65625 -0.265625q0.359375 -0.09375 0.796875 -0.09375q0.609375 0 1.0625 0.203125q0.453125 0.1875 0.75 0.5625q0.3125 0.359375 0.46875 0.875q0.15625 0.5 0.15625 1.140625l0 5.328125l-1.90625 0zm9.046875 0l-0.046875 -1.171875q-0.25 0.296875 -0.515625 0.546875q-0.265625 0.25 -0.578125 0.4375q-0.296875 0.171875 -0.640625 0.265625q-0.34375 0.109375 -0.765625 0.109375q-0.703125 0 -1.25 -0.28125q-0.546875 -0.296875 -0.921875 -0.8125q-0.375 -0.515625 -0.578125 -1.25q-0.1875 -0.75 -0.1875 -1.671875q0 -1.09375 0.3125 -1.890625q0.3125 -0.796875 0.859375 -1.328125q0.546875 -0.53125 1.296875 -0.78125q0.75 -0.25 1.625 -0.25q0.296875 0 0.59375 0.046875q0.3125 0.03125 0.546875 0.09375l0 -3.109375l1.90625 0l0 11.046875l-1.65625 0zm-3.484375 -3.90625q0 0.65625 0.09375 1.125q0.09375 0.453125 0.265625 0.75q0.171875 0.296875 0.421875 0.4375q0.265625 0.140625 0.59375 0.140625q0.484375 0 0.921875 -0.390625q0.4375 -0.390625 0.9375 -1.078125l0 -3.46875q-0.234375 -0.078125 -0.5625 -0.125q-0.328125 -0.0625 -0.671875 -0.0625q-0.453125 0 -0.828125 0.1875q-0.359375 0.1875 -0.625 0.53125q-0.265625 0.34375 -0.40625 0.84375q-0.140625 0.484375 -0.140625 1.109375zm14.4375 -0.125q0 0.9375 -0.265625 1.71875q-0.265625 0.765625 -0.765625 1.328125q-0.5 0.546875 -1.234375 0.859375q-0.71875 0.3125 -1.640625 0.3125q-0.890625 0 -1.59375 -0.265625q-0.6875 -0.265625 -1.171875 -0.765625q-0.484375 -0.515625 -0.75 -1.28125q-0.25 -0.78125 -0.25 -1.796875q0 -0.953125 0.265625 -1.71875q0.28125 -0.78125 0.78125 -1.328125q0.5 -0.546875 1.21875 -0.84375q0.734375 -0.296875 1.65625 -0.296875q0.890625 0 1.578125 0.265625q0.703125 0.25 1.1875 0.765625q0.484375 0.515625 0.734375 1.28125q0.25 0.765625 0.25 1.765625zm-1.984375 0.046875q0 -1.234375 -0.46875 -1.859375q-0.453125 -0.625 -1.359375 -0.625q-0.5 0 -0.859375 0.203125q-0.34375 0.1875 -0.578125 0.53125q-0.21875 0.34375 -0.328125 0.796875q-0.109375 0.453125 -0.109375 0.96875q0 1.234375 0.5 1.875q0.5 0.625 1.375 0.625q0.46875 0 0.8125 -0.1875q0.359375 -0.203125 0.578125 -0.53125q0.21875 -0.34375 0.328125 -0.796875q0.109375 -0.46875 0.109375 -1.0zm8.75 -0.875q0.015625 -0.4375 -0.046875 -0.75q-0.0625 -0.3125 -0.1875 -0.515625q-0.125 -0.203125 -0.3125 -0.296875q-0.1875 -0.09375 -0.4375 -0.09375q-0.421875 0 -0.875 0.34375q-0.4375 0.34375 -0.984375 1.140625l0 5.03125l-1.953125 0l0 -7.9375l1.734375 0l0.0625 1.15625q0.203125 -0.3125 0.4375 -0.546875q0.25 -0.25 0.546875 -0.421875q0.3125 -0.171875 0.671875 -0.265625q0.375 -0.09375 0.8125 -0.09375q0.59375 0 1.0625 0.203125q0.46875 0.203125 0.78125 0.609375q0.3125 0.40625 0.46875 1.03125q0.15625 0.609375 0.125 1.40625l-1.90625 0zm4.5625 1.453125l0 -1.703125l4.859375 0l0 1.703125l-4.859375 0zm12.90625 3.40625l-0.046875 -1.171875q-0.25 0.296875 -0.515625 0.546875q-0.265625 0.25 -0.578125 0.4375q-0.296875 0.171875 -0.640625 0.265625q-0.34375 0.109375 -0.765625 0.109375q-0.703125 0 -1.25 -0.28125q-0.546875 -0.296875 -0.921875 -0.8125q-0.375 -0.515625 -0.578125 -1.25q-0.1875 -0.75 -0.1875 -1.671875q0 -1.09375 0.3125 -1.890625q0.3125 -0.796875 0.859375 -1.328125q0.546875 -0.53125 1.296875 -0.78125q0.75 -0.25 1.625 -0.25q0.296875 0 0.59375 0.046875q0.3125 0.03125 0.546875 0.09375l0 -3.109375l1.9062195 0l0 11.046875l-1.6562195 0zm-3.484375 -3.90625q0 0.65625 0.09375 1.125q0.09375 0.453125 0.265625 0.75q0.171875 0.296875 0.421875 0.4375q0.265625 0.140625 0.59375 0.140625q0.484375 0 0.921875 -0.390625q0.4375 -0.390625 0.9375 -1.078125l0 -3.46875q-0.234375 -0.078125 -0.5625 -0.125q-0.328125 -0.0625 -0.671875 -0.0625q-0.453125 0 -0.828125 0.1875q-0.359375 0.1875 -0.625 0.53125q-0.265625 0.34375 -0.40625 0.84375q-0.140625 0.484375 -0.140625 1.109375zm13.1249695 1.828125l0 2.078125l-1.859375 0l0 -2.078125l-4.75 0l0 -1.640625l3.984375 -6.5l2.625 0l0 6.453125l1.546875 0l0 1.6875l-1.546875 0zm-1.84375 -6.296875l-2.90625 4.609375l2.90625 0l0 -4.609375zm9.78125 8.375l-0.046875 -1.046875q-0.25 0.265625 -0.53125 0.5q-0.265625 0.21875 -0.59375 0.390625q-0.328125 0.15625 -0.71875 0.25q-0.375 0.09375 -0.84375 0.09375q-0.609375 0 -1.078125 -0.1875q-0.453125 -0.1875 -0.765625 -0.5q-0.3125 -0.328125 -0.46875 -0.78125q-0.15625 -0.453125 -0.15625 -1.0q0 -0.5625 0.234375 -1.03125q0.234375 -0.484375 0.71875 -0.828125q0.5 -0.34375 1.21875 -0.53125q0.734375 -0.203125 1.71875 -0.203125l1.046875 0l0 -0.46875q0 -0.3125 -0.09375 -0.546875q-0.078125 -0.25 -0.28125 -0.421875q-0.1875 -0.171875 -0.5 -0.265625q-0.296875 -0.09375 -0.734375 -0.09375q-0.703125 0 -1.390625 0.15625q-0.6875 0.15625 -1.328125 0.453125l0 -1.53125q0.578125 -0.21875 1.3125 -0.359375q0.75 -0.15625 1.5625 -0.15625q0.875 0 1.5 0.171875q0.640625 0.15625 1.046875 0.5q0.421875 0.328125 0.609375 0.84375q0.203125 0.5 0.203125 1.171875l0 5.421875l-1.640625 0zm-0.265625 -3.515625l-1.171875 0q-0.484375 0 -0.828125 0.09375q-0.328125 0.09375 -0.546875 0.265625q-0.203125 0.15625 -0.296875 0.375q-0.09375 0.21875 -0.09375 0.453125q0 0.484375 0.3125 0.75q0.3125 0.25 0.84375 0.25q0.40625 0 0.828125 -0.28125q0.4375 -0.296875 0.953125 -0.84375l0 -1.0625zm4.1875 3.515625l0 -1.703125l2.609375 0l0 -6.5625l-2.265625 1.25l-0.625 -1.546875l3.234375 -1.71875l1.609375 0l0 8.578125l2.234375 0l0 1.703125l-6.796875 0zm11.96875 -2.890625q0.328125 0 0.609375 0.125q0.28125 0.125 0.484375 0.328125q0.203125 0.203125 0.3125 0.484375q0.125 0.28125 0.125 0.609375q0 0.3125 -0.125 0.59375q-0.109375 0.265625 -0.3125 0.484375q-0.203125 0.203125 -0.484375 0.328125q-0.28125 0.125 -0.609375 0.125q-0.3125 0 -0.59375 -0.125q-0.265625 -0.125 -0.46875 -0.328125q-0.203125 -0.21875 -0.328125 -0.484375q-0.109375 -0.28125 -0.109375 -0.59375q0 -0.328125 0.109375 -0.609375q0.125 -0.28125 0.328125 -0.484375q0.203125 -0.203125 0.46875 -0.328125q0.28125 -0.125 0.59375 -0.125zm11.125061 2.890625l0 -5.40625q0 -0.296875 -0.015625 -0.515625q-0.015625 -0.234375 -0.0625 -0.375q-0.046875 -0.15625 -0.14068604 -0.21875q-0.078125 -0.078125 -0.234375 -0.078125q-0.25 0 -0.484375 0.328125q-0.234375 0.328125 -0.53125 1.109375l0 5.15625l-1.625 0l0 -5.40625q0 -0.296875 -0.015625 -0.515625q-0.015625 -0.234375 -0.0625 -0.375q-0.046875 -0.15625 -0.140625 -0.21875q-0.09375 -0.078125 -0.25 -0.078125q-0.203125 0 -0.453125 0.328125q-0.25 0.328125 -0.5625 1.109375l0 5.15625l-1.640625 0l0 -7.9375l1.40625 0l0.03125 1.15625q0.171875 -0.359375 0.34375 -0.609375q0.171875 -0.25 0.359375 -0.40625q0.203125 -0.15625 0.421875 -0.21875q0.234375 -0.078125 0.515625 -0.078125q0.65625 0 1.0 0.34375q0.359375 0.34375 0.40625 0.96875q0.1875 -0.359375 0.359375 -0.609375q0.1875 -0.25 0.390625 -0.40625q0.203125 -0.15625 0.421875 -0.21875q0.234375 -0.078125 0.51568604 -0.078125q0.875 0 1.28125 0.609375q0.421875 0.59375 0.421875 1.78125l0 5.703125l-1.65625 0zm9.015625 -0.234375q0 0.90625 -0.265625 1.5625q-0.265625 0.65625 -0.75 1.09375q-0.484375 0.4375 -1.171875 0.640625q-0.6875 0.21875 -1.53125 0.21875q-0.6875 0 -1.28125 -0.125q-0.59375 -0.109375 -0.96875 -0.265625l0 -1.75q0.21875 0.109375 0.484375 0.21875q0.28125 0.125 0.578125 0.203125q0.3125 0.09375 0.625 0.140625q0.3125 0.0625 0.609375 0.0625q0.875 0 1.296875 -0.5q0.4375 -0.5 0.4375 -1.484375l0 -6.234375l-3.78125 0l0 -1.484375l5.71875 0l0 7.703125zm0.15625 -9.875q0 0.25 -0.09375 0.484375q-0.09375 0.21875 -0.265625 0.390625q-0.171875 0.171875 -0.40625 0.265625q-0.21875 0.09375 -0.484375 0.09375q-0.265625 0 -0.5 -0.09375q-0.21875 -0.09375 -0.390625 -0.265625q-0.171875 -0.171875 -0.265625 -0.390625q-0.09375 -0.234375 -0.09375 -0.484375q0 -0.265625 0.09375 -0.484375q0.09375 -0.234375 0.265625 -0.40625q0.171875 -0.171875 0.390625 -0.265625q0.234375 -0.09375 0.5 -0.09375q0.265625 0 0.484375 0.09375q0.234375 0.09375 0.40625 0.265625q0.171875 0.171875 0.265625 0.40625q0.09375 0.21875 0.09375 0.484375zm9.375 7.765625q0 0.6875 -0.3125 1.171875q-0.296875 0.46875 -0.796875 0.78125q-0.484375 0.296875 -1.125 0.4375q-0.625 0.140625 -1.28125 0.140625q-0.875 0 -1.578125 -0.09375q-0.703125 -0.078125 -1.328125 -0.234375l0 -1.71875q0.734375 0.296875 1.46875 0.4375q0.734375 0.140625 1.375 0.140625q0.75 0 1.125 -0.234375q0.375 -0.25 0.375 -0.625q0 -0.1875 -0.078125 -0.328125q-0.078125 -0.15625 -0.296875 -0.28125q-0.21875 -0.140625 -0.609375 -0.28125q-0.390625 -0.15625 -1.015625 -0.328125q-0.59375 -0.171875 -1.03125 -0.375q-0.4375 -0.203125 -0.734375 -0.484375q-0.28125 -0.28125 -0.4375 -0.65625q-0.140625 -0.375 -0.140625 -0.875q0 -0.484375 0.21875 -0.90625q0.21875 -0.4375 0.65625 -0.75q0.4375 -0.328125 1.078125 -0.515625q0.65625 -0.1875 1.515625 -0.1875q0.75 0 1.328125 0.078125q0.578125 0.078125 1.03125 0.171875l0 1.546875q-0.6875 -0.21875 -1.28125 -0.296875q-0.59375 -0.09375 -1.1875 -0.09375q-0.578125 0 -0.9375 0.21875q-0.359375 0.203125 -0.359375 0.578125q0 0.171875 0.0625 0.3125q0.078125 0.140625 0.28125 0.28125q0.21875 0.125 0.578125 0.28125q0.375 0.140625 0.984375 0.3125q0.6875 0.1875 1.15625 0.421875q0.46875 0.21875 0.75 0.5q0.296875 0.28125 0.421875 0.640625q0.125 0.359375 0.125 0.8125z" fill-rule="nonzero"/><path fill="#000000" fill-opacity="0.0" d="m305.99933 70.35433c0 18.159294 0.29135132 27.239853 0.58270264 36.31859c0.2913208 9.078743 0.5826721 18.15567 0.5826721 36.311333" fill-rule="evenodd"/><path stroke="#000000" stroke-width="1.0" stroke-linejoin="round" stroke-linecap="butt" d="m305.99933 70.35433c0 18.159294 0.29135132 27.239845 0.58270264 36.31859c0.1456604 4.5393677 0.2913208 9.078293 0.40057373 14.751816c0.054626465 2.836769 0.10015869 5.957184 0.13201904 9.503151c0.015930176 1.7729797 0.0284729 3.6523438 0.036987305 5.6558228l0.0012512207 0.40055847" fill-rule="evenodd"/><path fill="#000000" stroke="#000000" stroke-width="1.0" stroke-linecap="butt" d="m305.50113 136.98752l1.660675 4.534836l1.6427917 -4.5413513z" fill-rule="evenodd"/><path fill="#000000" fill-opacity="0.0" d="m305.99933 70.35433c0 18.159294 -50.787384 27.239853 -101.57478 36.31859c-50.7874 9.078743 -101.57481 18.15567 -101.57481 36.311333" fill-rule="evenodd"/><path stroke="#000000" stroke-width="1.0" stroke-linejoin="round" stroke-linecap="butt" d="m305.99933 70.35433c0 18.159294 -50.787384 27.239845 -101.57478 36.31859c-25.393707 4.5393677 -50.7874 9.078293 -69.83269 14.751816c-9.522629 2.836769 -17.45816 5.957184 -23.013039 9.503151c-2.7774353 1.7729797 -4.9597015 3.6523438 -6.4476166 5.6558228c-0.09299469 0.12521362 -0.18327332 0.25091553 -0.27082062 0.37712097l-0.2024231 0.30236816" fill-rule="evenodd"/><path fill="#000000" stroke="#000000" stroke-width="1.0" stroke-linecap="butt" d="m103.08302 136.76543l0.20729065 4.82489l2.9425888 -3.8293304z" fill-rule="evenodd"/><path fill="#000000" fill-opacity="0.0" d="m305.99933 70.35433c0 18.159294 50.787415 27.239853 101.57483 36.31859c50.787384 9.078743 101.5748 18.15567 101.5748 36.311333" fill-rule="evenodd"/><path stroke="#000000" stroke-width="1.0" stroke-linejoin="round" stroke-linecap="butt" d="m305.99933 70.35433c0 18.159294 50.787415 27.239845 101.57483 36.31859c25.393677 4.5393677 50.787384 9.078293 69.83267 14.751816c9.522644 2.836769 17.45816 5.957184 23.013031 9.503151c2.7774353 1.7729797 4.9597473 3.6523438 6.447632 5.6558228c0.09298706 0.12521362 0.18328857 0.25091553 0.27078247 0.37712097l0.20245361 0.30236816" fill-rule="evenodd"/><path fill="#000000" stroke="#000000" stroke-width="1.0" stroke-linecap="butt" d="m505.76578 137.76099l2.9425964 3.8293304l0.20730591 -4.82489z" fill-rule="evenodd"/><path fill="#000000" fill-opacity="0.0" d="m307.16077 193.00787c0 18.159302 50.496063 27.239853 100.99213 36.31859c50.496063 9.078751 100.99213 18.15567 100.99213 36.311325" fill-rule="evenodd"/><path stroke="#000000" stroke-width="1.0" stroke-linejoin="round" stroke-linecap="butt" d="m307.16077 193.00787c0 18.159302 50.496063 27.239853 100.99213 36.31859c25.248016 4.5393677 50.496063 9.078293 69.43207 14.751831c9.468018 2.8367615 17.358032 5.957184 22.881042 9.503128c2.7615356 1.772995 4.9312744 3.6523743 6.4106445 5.6558228c0.092437744 0.12521362 0.18218994 0.25091553 0.2692566 0.3771057l0.19943237 0.29968262" fill-rule="evenodd"/><path fill="#000000" stroke="#000000" stroke-width="1.0" stroke-linecap="butt" d="m505.76968 260.4095l2.9368286 3.8337097l0.21453857 -4.8245544z" fill-rule="evenodd"/><path fill="#000000" fill-opacity="0.0" d="m509.08072 193.01575c0 18.157486 0.01574707 27.236221 0.03149414 36.314957c0.01574707 9.078751 0.03149414 18.157486 0.03149414 36.314957" fill-rule="evenodd"/><path stroke="#000000" stroke-width="1.0" stroke-linejoin="round" stroke-linecap="butt" d="m509.08072 193.01575c0 18.157486 0.01574707 27.236221 0.03149414 36.314957c0.007873535 4.5393677 0.01574707 9.078751 0.021636963 14.75296c0.002960205 2.8370972 0.005432129 5.9579163 0.0071411133 9.504303l0.0013427734 6.0576935" fill-rule="evenodd"/><path fill="#000000" stroke="#000000" stroke-width="1.0" stroke-linecap="butt" d="m507.49063 259.64603l1.6527405 4.5377502l1.6507263 -4.5384827z" fill-rule="evenodd"/></g></svg>